<svg xmlns="http://www.w3.org/2000/svg" width="32" height="32" viewBox="0 0 32 32" fill="none">
  <!-- Green leaf shape - fills edge to edge, no padding -->
  <path d="M16 0C7 0 0 9 0 16c0 9 7 16 16 16 7 0 16-7 16-16C32 7 23 0 16 0z" fill="#1B8C2A"/>
  <!-- Leaf points: top-right and bottom-left -->
  <path d="M30 2C30 2 22 0 14 4C6 8 2 16 2 16C2 16 2 24 8 28C14 32 22 30 22 30C22 30 32 24 32 16C32 8 30 2 30 2z" fill="#1B8C2A"/>
  <!-- Price tag cutout -->
  <path d="M18 8L10 16L14 24L22 16L18 8z" fill="white"/>
  <!-- Tag rounded top -->
  <path d="M13 11L10 16L14 24L22 16L19.5 10C19 8.5 17.5 7.5 16 8L13 11z" fill="white"/>
  <!-- Tag hole -->
  <circle cx="17" cy="12" r="1.5" fill="#1B8C2A"/>
</svg>
